<svg width="160" height="141" viewBox="0 0 160 141" fill="none" xmlns="http://www.w3.org/2000/svg">
<path d="M160 0H47.0588V47H0V141H94.1176V94H160V0ZM88.4706 135.36H5.64706V52.64H88.4706V135.36ZM154.353 88.36H94.1176V47H52.7059V5.64H154.353V88.36Z" fill="white"/>
<path d="M22.7765 79.336L31.2471 101.896L39.7176 79.336H46.3059V108.664H41.2235V98.888L41.7882 85.916L33.1294 108.664H29.5529L20.8941 86.104L21.4588 99.076V108.852H16.1882V79.336H22.7765Z" fill="white"/>
<path d="M62.8706 96.068H59.4824V108.664H54.4V79.336H59.4824V91.744H62.1177L70.7765 79.336H76.9883L66.8236 93.436L77.7412 108.852H71.5294L62.8706 96.068Z" fill="white"/>
<path d="M61.9294 31.584L64.1882 20.492H66.2588V35.72H64.5647V25.568L62.4941 35.72H61.3647L59.2941 25.568V35.72H57.6V20.304H59.6706L61.9294 31.584Z" fill="white"/>
<path d="M73.2235 35.72C73.2235 35.344 73.0353 34.968 73.0353 34.216C72.4706 35.344 71.9059 35.908 71.1529 35.908C70.4 35.908 69.8353 35.532 69.2706 34.592C68.7059 33.652 68.5176 32.712 68.5176 31.396C68.5176 29.704 68.8941 28.576 69.4588 27.636C70.0235 26.696 70.9647 26.32 71.9059 26.32H72.847V25.38C72.847 24.628 72.6588 23.876 72.4706 23.5C72.2823 22.936 71.9059 22.748 71.5294 22.748C71.1529 22.748 70.7765 22.936 70.5882 23.312C70.4 23.688 70.2118 24.252 70.2118 24.816H68.5176C68.5176 24.064 68.7059 23.124 68.8941 22.372C69.0823 21.62 69.4588 21.056 70.0235 20.68C70.4 20.304 70.9647 20.116 71.5294 20.116C72.4706 20.116 73.0353 20.492 73.6 21.432C74.1647 22.372 74.3529 23.688 74.3529 25.192V32.148C74.3529 33.464 74.3529 34.592 74.7294 35.532V35.72H73.2235ZM71.3412 33.276C71.7176 33.276 71.9059 33.088 72.2823 32.712C72.6588 32.336 72.847 31.96 72.847 31.396V28.576H71.9059C71.3412 28.576 70.7765 28.764 70.5882 29.328C70.2118 29.704 70.2118 30.456 70.2118 31.208C70.2118 31.96 70.4 32.336 70.5882 32.712C70.7765 33.088 70.9647 33.276 71.3412 33.276Z" fill="white"/>
<path d="M83.2 35.72H81.5059V29.516H78.6823V35.72H76.9882V20.304H78.6823V26.696H81.5059V20.304H83.2V35.72Z" fill="white"/>
<path d="M88.2823 30.832L89.7882 20.492H91.4823L88.4706 38.164C88.0941 40.796 87.1529 42.112 86.2118 42.112C86.0235 42.112 85.6471 42.112 85.4588 41.924V39.292H85.8353C86.2118 39.292 86.5882 39.104 86.7765 38.728C86.9647 38.352 87.1529 37.788 87.3412 37.224L87.5294 35.908L84.8941 20.68H86.7765L88.2823 30.832Z" fill="white"/>
<path d="M92.6118 28.388C92.6118 25.944 92.8 23.876 93.3647 22.372C93.9294 20.868 94.4941 20.116 95.4353 20.116C95.8118 20.116 96.1882 20.304 96.3765 20.492V13.912H98.0706V20.68C98.447 20.304 98.6353 20.304 99.0117 20.304C99.9529 20.304 100.518 21.056 101.082 22.56C101.647 24.064 101.835 26.132 101.835 28.764C101.835 31.02 101.647 32.9 101.082 34.216C100.518 35.532 99.9529 36.284 99.0117 36.284C98.6353 36.284 98.2588 36.096 97.8823 35.908V41.924H96.1882V35.72C96 35.908 95.6235 36.096 95.247 36.096C94.4941 36.096 93.7412 35.532 93.3647 34.216C92.8 32.9 92.6118 31.396 92.6118 29.14V28.388ZM94.3059 28.576C94.3059 30.08 94.4941 31.208 94.6823 32.148C94.8706 32.9 95.247 33.276 95.8118 33.276C96 33.276 96.1882 33.276 96.3765 33.088V22.936C96.1882 22.748 96 22.748 95.8118 22.748C95.247 22.748 95.0588 23.124 94.6823 24.064C94.4941 25.192 94.3059 26.696 94.3059 28.576ZM100.141 28.388C100.141 26.696 99.9529 25.38 99.7647 24.44C99.5765 23.5 99.2 22.936 98.6353 22.936C98.447 22.936 98.2588 22.936 98.0706 23.124V33.276C98.2588 33.464 98.447 33.464 98.6353 33.464C99.5765 33.276 100.141 31.584 100.141 28.388Z" fill="white"/>
<path d="M108.235 35.72C108.235 35.344 108.047 34.968 108.047 34.216C107.482 35.344 106.918 35.908 106.165 35.908C105.412 35.908 104.847 35.532 104.282 34.592C103.718 33.652 103.529 32.712 103.529 31.396C103.529 29.704 103.906 28.576 104.471 27.636C105.035 26.696 105.976 26.32 106.918 26.32H107.859V25.38C107.859 24.628 107.671 23.876 107.482 23.5C107.294 22.936 106.918 22.748 106.541 22.748C106.165 22.748 105.788 22.936 105.6 23.312C105.412 23.688 105.412 24.252 105.412 24.816H103.718C103.718 24.064 103.906 23.124 104.094 22.372C104.282 21.62 104.659 21.056 105.224 20.68C105.6 20.304 106.165 20.116 106.729 20.116C107.671 20.116 108.235 20.492 108.8 21.432C109.365 22.372 109.553 23.688 109.553 25.192V32.148C109.553 33.464 109.553 34.592 109.741 35.532V35.72H108.235ZM106.353 33.276C106.729 33.276 106.918 33.088 107.294 32.712C107.671 32.336 107.859 31.96 107.859 31.396V28.576H106.918C106.353 28.576 105.788 28.764 105.6 29.328C105.224 29.704 105.224 30.456 105.224 31.208C105.224 31.96 105.412 32.336 105.6 32.712C105.788 33.088 105.976 33.276 106.353 33.276Z" fill="white"/>
<path d="M114.635 29.704H113.694V35.72H112V20.304H113.694V26.508H114.447L116.518 20.304H118.588L115.953 27.636L118.965 35.72H116.706L114.635 29.704Z" fill="white"/>
<path d="M126.306 23.124H123.859V35.72H122.165V23.124H119.718V20.304H126.118V23.124H126.306Z" fill="white"/>
<path d="M130.635 30.832L132.141 20.492H133.835L130.824 38.164C130.447 40.796 129.506 42.112 128.565 42.112C128.376 42.112 128 42.112 127.812 41.924V39.292H128.188C128.565 39.292 128.941 39.104 129.129 38.728C129.318 38.352 129.506 37.788 129.694 37.224L129.882 35.72L127.247 20.492H129.129L130.635 30.832Z" fill="white"/>
<path d="M141.929 28.2C141.929 30.644 141.741 32.524 141.176 33.84C140.612 35.344 139.859 35.908 139.106 35.908C138.353 35.908 137.6 35.344 137.224 34.216V41.548H135.529V20.492H137.035V21.996C137.6 20.68 138.165 20.116 139.106 20.116C140.047 20.116 140.8 20.868 141.176 22.184C141.741 23.5 141.929 25.568 141.929 28.012V28.2ZM140.235 28.012C140.235 26.508 140.047 25.192 139.859 24.44C139.482 23.5 139.106 23.124 138.541 23.124C137.788 23.124 137.412 23.688 137.035 24.816V31.584C137.412 32.712 137.788 33.464 138.541 33.464C139.106 33.464 139.482 33.088 139.859 32.148C140.047 31.208 140.235 29.704 140.235 28.012Z" fill="white"/>
<path d="M148.329 35.72C148.329 35.344 148.141 34.968 148.141 34.216C147.576 35.344 147.012 35.908 146.259 35.908C145.506 35.908 144.941 35.532 144.376 34.592C143.812 33.652 143.624 32.712 143.624 31.396C143.624 29.704 144 28.576 144.565 27.636C145.129 26.696 146.071 26.32 147.012 26.32H147.953V25.38C147.953 24.628 147.765 23.876 147.576 23.5C147.388 22.936 147.012 22.748 146.635 22.748C146.259 22.748 145.882 22.936 145.694 23.312C145.506 23.688 145.318 24.252 145.318 24.816H143.624C143.624 24.064 143.812 23.124 144 22.372C144.188 21.62 144.565 21.056 145.129 20.68C145.506 20.304 146.071 20.116 146.635 20.116C147.576 20.116 148.141 20.492 148.706 21.432C149.271 22.372 149.459 23.688 149.459 25.192V32.148C149.459 33.464 149.459 34.592 149.647 35.532V35.72H148.329ZM146.635 33.276C147.012 33.276 147.2 33.088 147.576 32.712C147.953 32.336 148.141 31.96 148.141 31.396V28.576H147.2C146.635 28.576 146.071 28.764 145.882 29.328C145.506 29.704 145.506 30.456 145.506 31.208C145.506 31.96 145.694 32.336 145.882 32.712C145.882 33.088 146.259 33.276 146.635 33.276Z" fill="white"/>
<path d="M109.929 56.212H109.176V62.228H107.482V47H109.176V53.204H109.929L112 47H114.071L111.435 54.332L114.447 62.416H112.188L109.929 56.212Z" fill="white"/>
<path d="M120.094 62.416C120.094 62.04 119.906 61.664 119.906 60.912C119.341 62.04 118.776 62.604 118.024 62.604C117.271 62.604 116.706 62.228 116.141 61.288C115.576 60.348 115.388 59.408 115.388 58.092C115.388 56.4 115.765 55.272 116.329 54.332C116.894 53.392 117.835 53.016 118.776 53.016H119.718V52.076C119.718 51.324 119.529 50.572 119.341 50.196C119.153 49.632 118.776 49.444 118.4 49.444C118.024 49.444 117.647 49.632 117.459 50.008C117.271 50.384 117.082 50.948 117.082 51.512H115.388C115.388 50.76 115.576 49.82 115.765 49.068C115.953 48.316 116.329 47.752 116.894 47.376C117.271 47 117.835 46.812 118.4 46.812C119.341 46.812 119.906 47.188 120.471 48.128C121.035 49.068 121.224 50.384 121.224 51.888V58.844C121.224 60.16 121.224 61.288 121.6 62.228V62.416H120.094ZM118.4 59.972C118.776 59.972 118.965 59.784 119.341 59.408C119.718 59.032 119.906 58.656 119.906 58.092V55.272H118.965C118.4 55.272 117.835 55.46 117.647 56.024C117.271 56.4 117.271 57.152 117.271 57.904C117.271 58.656 117.459 59.032 117.647 59.408C117.647 59.596 118.024 59.972 118.4 59.972Z" fill="white"/>
<path d="M128.376 58.092L130.635 47H132.706V62.416H131.012V52.264L128.941 62.416H127.812L125.741 52.264V62.416H124.047V47H126.118L128.376 58.092Z" fill="white"/>
<path d="M141.365 62.416H139.671V56.212H136.847V62.416H135.153V47H136.847V53.392H139.671V47H141.365V62.416Z" fill="white"/>
<path d="M149.647 47V62.416H147.953V56.776H146.447L144.941 62.416H143.247L144.941 56.212C144.565 55.836 144.188 55.272 143.812 54.52C143.624 53.768 143.435 53.016 143.435 51.888C143.435 50.384 143.624 49.256 144.188 48.316C144.753 47.376 145.506 47 146.447 47H149.647ZM145.129 52.076C145.129 52.64 145.318 53.204 145.506 53.58C145.694 53.956 146.071 54.144 146.447 54.144H148.141V49.632H146.635C146.259 49.632 145.882 49.82 145.694 50.196C145.318 50.76 145.129 51.324 145.129 52.076Z" fill="white"/>
<path d="M160 99.64H99.7647V141H160V99.64Z" fill="#95C11F"/>
<path d="M41.4118 0H0V41.36H41.4118V0Z" fill="#F9B233"/>
</svg>
